<svg width="14" height="16" viewBox="0 0 14 16" fill="none" xmlns="http://www.w3.org/2000/svg">
<path d="M13.39 10.4075L12.04 9.04998V5.70498C12.058 4.46285 11.6259 3.25616 10.8236 2.30773C10.0213 1.3593 8.90292 0.733183 7.67499 0.544982C6.96235 0.451132 6.23789 0.510343 5.54995 0.718663C4.862 0.926984 4.2264 1.27962 3.68554 1.75305C3.14468 2.22648 2.711 2.80981 2.41345 3.46413C2.1159 4.11844 1.96131 4.82869 1.95999 5.54748V9.04998L0.609994 10.4075C0.440423 10.5799 0.325431 10.7984 0.279394 11.0358C0.233357 11.2732 0.258316 11.5189 0.351152 11.7422C0.443988 11.9655 0.600582 12.1565 0.801357 12.2912C1.00213 12.426 1.23818 12.4986 1.47999 12.5H3.99999V12.755C4.03503 13.5164 4.37046 14.2328 4.93279 14.7474C5.49512 15.2619 6.23848 15.5325 6.99999 15.5C7.7615 15.5325 8.50487 15.2619 9.0672 14.7474C9.62953 14.2328 9.96496 13.5164 9.99999 12.755V12.5H12.52C12.7618 12.4986 12.9979 12.426 13.1986 12.2912C13.3994 12.1565 13.556 11.9655 13.6488 11.7422C13.7417 11.5189 13.7666 11.2732 13.7206 11.0358C13.6746 10.7984 13.5596 10.5799 13.39 10.4075ZM8.49999 12.755C8.4584 13.1157 8.27923 13.4465 7.9998 13.6785C7.72037 13.9104 7.36223 14.0256 6.99999 14C6.63776 14.0256 6.27962 13.9104 6.00019 13.6785C5.72076 13.4465 5.54159 13.1157 5.49999 12.755V12.5H8.49999V12.755ZM2.13249 11L3.01749 10.115C3.15787 9.97544 3.26924 9.80949 3.34519 9.62671C3.42113 9.44392 3.46015 9.24792 3.45999 9.04998V5.54748C3.4604 5.04153 3.56903 4.54152 3.77859 4.08101C3.98815 3.6205 4.29379 3.21015 4.67499 2.87748C5.05106 2.53674 5.49667 2.28179 5.981 2.13028C6.46532 1.97877 6.97679 1.93431 7.47999 1.99998C8.34735 2.14081 9.13464 2.59024 9.69691 3.26552C10.2592 3.94079 10.5586 4.79646 10.54 5.67498V9.04998C10.5389 9.24739 10.5767 9.44309 10.6513 9.62584C10.726 9.8086 10.836 9.97482 10.975 10.115L11.8675 11H2.13249Z" fill="white"/>
</svg>
