<svg width="8" height="6" viewBox="0 0 8 6" fill="none" xmlns="http://www.w3.org/2000/svg">
<path d="M7.75002 0.877518C7.6095 0.73783 7.41941 0.659424 7.22127 0.659424C7.02313 0.659424 6.83304 0.73783 6.69252 0.877518L4.00002 3.53252L1.34502 0.877518C1.2045 0.73783 1.01441 0.659424 0.816272 0.659424C0.618133 0.659424 0.428044 0.73783 0.287523 0.877518C0.217226 0.94724 0.16143 1.03019 0.123354 1.12159C0.0852773 1.21298 0.0656738 1.31101 0.0656738 1.41002C0.0656738 1.50903 0.0852773 1.60706 0.123354 1.69845C0.16143 1.78985 0.217226 1.8728 0.287523 1.94252L3.46752 5.12252C3.53724 5.19281 3.6202 5.24861 3.71159 5.28669C3.80298 5.32476 3.90101 5.34437 4.00002 5.34437C4.09903 5.34437 4.19706 5.32476 4.28846 5.28669C4.37985 5.24861 4.4628 5.19281 4.53252 5.12252L7.75002 1.94252C7.82032 1.8728 7.87611 1.78985 7.91419 1.69845C7.95227 1.60706 7.97187 1.50903 7.97187 1.41002C7.97187 1.31101 7.95227 1.21298 7.91419 1.12159C7.87611 1.03019 7.82032 0.94724 7.75002 0.877518Z" fill="white"/>
</svg>
