<svg width="6" height="8" viewBox="0 0 6 8" fill="none" xmlns="http://www.w3.org/2000/svg">
<path d="M2.46749 4.00002L5.12249 1.34502C5.26218 1.2045 5.34058 1.01441 5.34058 0.816272C5.34058 0.618133 5.26218 0.428044 5.12249 0.287523C5.05277 0.217226 4.96982 0.16143 4.87842 0.123354C4.78703 0.0852773 4.689 0.0656738 4.58999 0.0656738C4.49098 0.0656738 4.39295 0.0852773 4.30156 0.123354C4.21016 0.16143 4.12721 0.217226 4.05749 0.287523L0.877488 3.46752C0.807192 3.53724 0.751397 3.6202 0.71332 3.71159C0.675244 3.80298 0.65564 3.90101 0.65564 4.00002C0.65564 4.09903 0.675244 4.19706 0.71332 4.28846C0.751397 4.37985 0.807192 4.4628 0.877488 4.53252L4.05749 7.75002C4.12757 7.81953 4.21068 7.87453 4.30206 7.91185C4.39344 7.94917 4.49128 7.96809 4.58999 7.96752C4.68869 7.96809 4.78654 7.94917 4.87792 7.91185C4.9693 7.87453 5.05241 7.81953 5.12249 7.75002C5.26218 7.6095 5.34058 7.41941 5.34058 7.22127C5.34058 7.02313 5.26218 6.83304 5.12249 6.69252L2.46749 4.00002Z" fill="white"/>
</svg>
