<svg width="6" height="9" viewBox="0 0 6 9" fill="none" xmlns="http://www.w3.org/2000/svg">
<path d="M5.12252 3.96752L1.94252 0.787523C1.8728 0.717226 1.78985 0.66143 1.69845 0.623354C1.60706 0.585277 1.50903 0.565674 1.41002 0.565674C1.31101 0.565674 1.21298 0.585277 1.12159 0.623354C1.03019 0.66143 0.94724 0.717226 0.877518 0.787523C0.73783 0.928044 0.659424 1.11813 0.659424 1.31627C0.659424 1.51441 0.73783 1.7045 0.877518 1.84502L3.53252 4.50002L0.877518 7.15502C0.73783 7.29554 0.659424 7.48563 0.659424 7.68377C0.659424 7.88191 0.73783 8.072 0.877518 8.21252C0.947598 8.28203 1.03071 8.33703 1.12209 8.37435C1.21347 8.41167 1.31131 8.43059 1.41002 8.43002C1.50872 8.43059 1.60657 8.41167 1.69795 8.37435C1.78933 8.33703 1.87244 8.28203 1.94252 8.21252L5.12252 5.03252C5.19281 4.9628 5.24861 4.87985 5.28669 4.78846C5.32476 4.69706 5.34437 4.59903 5.34437 4.50002C5.34437 4.40101 5.32476 4.30298 5.28669 4.21159C5.24861 4.1202 5.19281 4.03724 5.12252 3.96752Z" fill="#4A8394"/>
</svg>
